# xmcd
#
# Track frame offsets: 
#        150
#        14818
#        37020
#        48197
#        69947
#        99011
#        127360
#        157587
#        168989
#        180547
#        193862
#        203689
#        214520
#        232502
#        249029
#        274865
#
# Disc length: 3928 seconds
#
# Revision: 0
# Processed by: cddbd v1.5.2PL0 Copyright (c) Steve Scherf et al.
# Submitted via: ExactAudioCopy v0.99pb4
#
DISCID=c90f5610
DTITLE=Rocky Zharp - Live at BB Kings
DYEAR=2003
DGENRE=Blues
TTITLE0=In The Dark
TTITLE1=Old Blues Cracker
TTITLE2=Rollin' and Tumblin'
TTITLE3=Granny's Boogie
TTITLE4=Louise
TTITLE5=Help Me
TTITLE6=King Bee/Sittin' On Top Of The World
TTITLE7=Writing On The Wall
TTITLE8=Big Boss Man
TTITLE9=Built For Comfort
TTITLE10=3 Nights In A Row
TTITLE11=Mind Your Own Business
TTITLE12=I's Gonna Leave Her Anyway
TTITLE13=I Got Love
TTITLE14=Lizard Blues
TTITLE15=You Better Run
EXTD=
EXTT0=
EXTT1=
EXTT2=
EXTT3=
EXTT4=
EXTT5=
EXTT6=
EXTT7=
EXTT8=
EXTT9=
EXTT10=
EXTT11=
EXTT12=
EXTT13=
EXTT14=
EXTT15=
PLAYORDER=
